<svg viewBox="0 0 14 14" fill="none" width="32" height="32" xmlns="http://www.w3.org/2000/svg" xmlns:xlink="http://www.w3.org/1999/xlink">
    <style>
        :root, .palette0 {color: currentColor;
            --color0: #001a25;
            --color1: #636970;
        }
    </style>
    <path fill="var(--color1, #636970)" d="M5.5 10.0003H4L4 0.5c0-0.1326-0.0527-0.2598-0.1465-0.3535C3.7598 0.0527 3.6326 0 3.5 0l-1 0C2.3673 0 2.2402 0.0527 2.1464 0.1465 2.0526 0.2402 1.9999 0.3674 1.9999 0.5l0 9.5003h-1.5c-0.4435 0-0.6675 0.5387-0.3528 0.8534l2.5 3.0001c0.0938 0.0937 0.2209 0.1463 0.3535 0.1463s0.2597-0.0526 0.3534-0.1463l2.5001-3.0001c0.3131-0.314 0.0903-0.8534-0.3541-0.8534zM13.0002 8.0002l-4.0001 0c-0.1326 0-0.2598 0.0527-0.3535 0.1465-0.0938 0.0937-0.1465 0.2209-0.1465 0.3535l0 1c0 0.1327 0.0527 0.2599 0.1465 0.3536 0.0937 0.0938 0.2209 0.1465 0.3535 0.1465h1.7501l-1.9145 2.2016c-0.1055 0.0938-0.19 0.209-0.2479 0.3378-0.0578 0.1288-0.0877 0.2685-0.0877 0.4097l0 0.551c0 0.1326 0.0527 0.2598 0.1465 0.3535 0.0937 0.0938 0.2209 0.1465 0.3535 0.1465h4.0001c0.1326 0 0.2598-0.0527 0.3536-0.1465 0.0938-0.0937 0.1464-0.2209 0.1464-0.3535v-1.0001c0-0.1326-0.0526-0.2598-0.1464-0.3535-0.0938-0.0938-0.221-0.1465-0.3536-0.1465h-1.75l1.9144-2.2016c0.1056-0.0938 0.1901-0.209 0.2479-0.3378 0.0579-0.1288 0.0878-0.2685 0.0877-0.4097v-0.551c0-0.1326-0.0526-0.2598-0.1464-0.3535-0.0938-0.0938-0.221-0.1465-0.3536-0.1465zM13.9709 5.332 12.1186 0.3319c-0.0346-0.0972-0.0985-0.1812-0.1828-0.2406C11.8515 0.0319 11.7508 0 11.6477 0l-1.295 0c-0.1032 0-0.2038 0.0319-0.2881 0.0913-0.0843 0.0594-0.1482 0.1434-0.1829 0.2406L8.0295 5.332c-0.027 0.0755-0.0354 0.1563-0.0246 0.2356 0.0108 0.0794 0.0406 0.155 0.0867 0.2205C8.1377 5.8536 8.1989 5.907 8.27 5.9439 8.3411 5.9808 8.42 6.0001 8.5001 6.0002l0.776 0c0.1057 0 0.2088-0.0335 0.2943-0.0957 0.0855-0.0622 0.1491-0.15 0.1816-0.2506l0.1382-0.4038 2.2188 0 0.1378 0.4038c0.0326 0.1008 0.0963 0.1887 0.1821 0.2509 0.0858 0.0623 0.1891 0.0957 0.2951 0.0954l0.7762 0c0.0801-1e-4 0.1591-0.0194 0.2302-0.0563 0.0711-0.0369 0.1322-0.0903 0.1784-0.1558 0.0461-0.0655 0.0758-0.1411 0.0866-0.2205 0.0108-0.0793 24e-4-0.1601-0.0245-0.2356zM10.488 3.5001l0.5122-1.5001 0.5122 1.5001z" />
</svg>