<svg viewBox="0 0 14 14" fill="none" width="32" height="32" xmlns="http://www.w3.org/2000/svg" xmlns:xlink="http://www.w3.org/1999/xlink">
    <style>
        :root, .palette0 {color: currentColor;
            --color0: #001a25;
            --color1: #636970;
        }
    </style>
    <path fill="var(--color1, #636970)" d="M0.3394 4.0476 6.7088 6.937c0.1859 0.0845 0.3962 0.0845 0.5821 0l6.3694-2.8894c0.4526-0.2054 0.4526-0.8892 0-1.0946L7.2912 0.0634C7.1999 0.0216 7.1006 0 7.0001 0 6.8997 0 6.8004 0.0216 6.7091 0.0634L0.3394 2.9528c-0.4525 0.2053-0.4525 0.8894 0 1.0948zM13.6606 6.4615l-1.5884-0.72L7.6524 7.745C7.4457 7.8388 7.2261 7.8863 7 7.8863c-0.2261 0-0.4454-0.0475-0.6524-0.1413L1.9281 5.7415l-1.5887 0.72c-0.4525 0.205-0.4525 0.8886 0 1.0937l6.3694 2.8872c0.1859 0.0842 0.3962 0.0842 0.5821 0l6.3697-2.8872c0.4525-0.2051 0.4525-0.8886 0-1.0937zM13.6606 9.956 12.0782 9.2388 7.6524 11.2449C7.4457 11.3387 7.2261 11.3863 7 11.3863s-0.4454-0.0476-0.6524-0.1414L1.922 9.2388 0.3394 9.956c-0.4525 0.205-0.4525 0.8886 0 1.0937l6.3694 2.8872c0.1859 0.0842 0.3962 0.0842 0.5821 0l6.3697-2.8872c0.4525-0.2051 0.4525-0.8887 0-1.0937z" />
</svg>